<svg version="1" xmlns="http://www.w3.org/2000/svg" width="682.667" height="682.667" viewBox="0 0 512.000000 512.000000"><path d="M192 53v32h-35.4c-32.5 0-35.9.2-41.8 2-11.9 3.7-22.2 13.2-27.2 25.3-2 5-2.1 6.9-2.6 59.6l-.5 54.4-14.6 4.7c-17.1 5.4-21 7.6-24.5 13.5-5.3 9.1-5.6 7.4 17.5 88l20.8 73 7.3-.2c24.2-.7 49.9-12.7 71.5-33.4l8.1-7.8 4.5 4.5c16 16.5 37.1 28.9 58.6 34.5 12.9 3.4 32.9 3.2 46.5-.4 20-5.3 41-17.9 56.7-34.1l4.4-4.5 8.7 8.2c21 20 47 32.2 70.2 32.9l8.1.3 17.8-63c25-88 24.2-84.7 22.8-91.5-.9-4.5-2-6.4-5.8-10.1-4.3-4.3-5.8-5-20.1-9.7l-15.5-5-.5-54.3c-.5-52.7-.6-54.6-2.6-59.6-5-12.1-15.3-21.6-27.2-25.3-5.9-1.8-9.3-2-41.8-2H320V21H192v32zm192 117.1c0 35-.2 42-1.4 41.6-.7-.3-29.5-9.8-63.9-21.1L256.1 170l-62.7 20.6c-34.5 11.3-63.3 20.8-64.1 21.1-1.1.4-1.3-6.9-1.3-41.6V128h256v42.1zM164.5 423.2c-9.3 6.1-25 13.4-36.5 17.2-17 5.5-26.2 6.7-57.7 7.3l-28.3.6v42.9l33.3-.5c31-.4 34-.6 45.5-3.1 14.4-3.1 30.1-8.2 41.5-13.5l8.2-3.7 7.4 3.3c49.2 22.3 107.3 22.3 156.3 0l7.4-3.4 5.5 2.7c7.7 3.9 23 9.5 32.9 12 18.7 4.8 22.4 5.2 56.8 5.7l33.2.5v-42.9l-28.2-.6c-30.2-.6-39.3-1.7-54.7-6.3-14.5-4.4-32.4-13-43.6-20.9-1.8-1.3-2.5-1-7.5 2.1-27.9 17.9-61.4 26.4-92.2 23.4-23.5-2.2-47.1-10.3-66.3-22.4-2.7-1.8-5.4-3.5-6-3.8-.5-.3-3.7 1.2-7 3.4z"/></svg>